HIERARCHY
ROOT Hips
{
	OFFSET -3.958830 18.904000 13.208200
	CHANNELS 6 Xposition Yposition Zposition Zrotation Yrotation Xrotation 
	JOINT LHipJoint
	{
		OFFSET 0.000000 0.000000 0.000000
		CHANNELS 3 Zrotation Yrotation Xrotation
		JOINT LeftUpLeg
		{
			OFFSET 1.800000 -1.400000 0.085000
			CHANNELS 3 Zrotation Yrotation Xrotation
			JOINT LeftLeg
			{
				OFFSET 2.215000 -6.000000 0.000000
				CHANNELS 3 Zrotation Yrotation Xrotation
				JOINT LeftFoot
				{
					OFFSET 2.500000 -6.900000 0.000000
					CHANNELS 3 Zrotation Yrotation Xrotation
					JOINT LeftToeBase
					{
						OFFSET 0.200000 -0.500000 1.950000
						CHANNELS 3 Zrotation Yrotation Xrotation
						End Site
						{
							OFFSET 0.000000 0.000000 0.000000
						}
					}
				}
			}
		}
	}
	JOINT RHipJoint
	{
		OFFSET 0.000000 0.000000 0.000000
		CHANNELS 3 Zrotation Yrotation Xrotation
		JOINT RightUpLeg
		{
			OFFSET -1.800000 -1.400000 0.085000
			CHANNELS 3 Zrotation Yrotation Xrotation
			JOINT RightLeg
			{
				OFFSET -2.215000 -6.000000 0.000000
				CHANNELS 3 Zrotation Yrotation Xrotation
				JOINT RightFoot
				{
					OFFSET -2.500000 -6.900000 0.000000
					CHANNELS 3 Zrotation Yrotation Xrotation
					JOINT RightToeBase
					{
						OFFSET -0.200000 -0.500000 1.950000
						CHANNELS 3 Zrotation Yrotation Xrotation
						End Site
						{
							OFFSET 0.000000 0.000000 0.000000
						}
					}
				}
			}
		}
	}
	JOINT LowerBack
	{
		OFFSET 0.000000 0.000000 0.000000
		CHANNELS 3 Zrotation Yrotation Xrotation
		JOINT Spine
		{
			OFFSET -0.087000 1.940000 -0.288900
			CHANNELS 3 Zrotation Yrotation Xrotation
			JOINT Spine1
			{
				OFFSET 0.000000 1.950000 0.060000
				CHANNELS 3 Zrotation Yrotation Xrotation
				JOINT Neck
				{
					OFFSET 0.000000 0.000000 0.000000
					CHANNELS 3 Zrotation Yrotation Xrotation
					JOINT Neck1
					{
						OFFSET 0.000000 1.600000 0.340000
						CHANNELS 3 Zrotation Yrotation Xrotation
						JOINT Head
						{
							OFFSET 0.000000 1.667000 -0.240000
							CHANNELS 3 Zrotation Yrotation Xrotation
							End Site
							{
								OFFSET 0.000000 0.000000 0.000000
							}
						}
					}
				}
				JOINT LeftShoulder
				{
					OFFSET 0.000000 0.000000 0.000000
					CHANNELS 3 Zrotation Yrotation Xrotation
					JOINT LeftArm
					{
						OFFSET 2.700000 1.550000 -0.730000
						CHANNELS 3 Zrotation Yrotation Xrotation
						JOINT LeftForeArm
						{
							OFFSET 5.450000 0.000000 0.000000
							CHANNELS 3 Zrotation Yrotation Xrotation
							JOINT LeftHand
							{
								OFFSET 3.450000 0.000000 0.000000
								CHANNELS 3 Zrotation Yrotation Xrotation
								JOINT LeftHandIndex1
								{
									OFFSET 0.750000 0.000000 0.000000
									CHANNELS 3 Zrotation Yrotation Xrotation
									End Site
									{
										OFFSET 0.000000 0.000000 0.000000
									}
								}
							}
						}
					}
				}
				JOINT RightShoulder
				{
					OFFSET 0.000000 0.000000 0.000000
					CHANNELS 3 Zrotation Yrotation Xrotation
					JOINT RightArm
					{
						OFFSET -2.700000 1.550000 -0.730000
						CHANNELS 3 Zrotation Yrotation Xrotation
						JOINT RightForeArm
						{
							OFFSET -5.450000 0.000000 0.000000
							CHANNELS 3 Zrotation Yrotation Xrotation
							JOINT RightHand
							{
								OFFSET -3.450000 0.000000 0.000000
								CHANNELS 3 Zrotation Yrotation Xrotation
								JOINT RightHandIndex1
								{
									OFFSET -0.750000 0.000000 0.000000
									CHANNELS 3 Zrotation Yrotation Xrotation
									End Site
									{
										OFFSET 0.000000 0.000000 0.000000
									}
								}
							}
						}
					}
				}
			}
		}
	}
}
MOTION
Frames: 12
Frame Time: 0.016667
-0.451000 17.925750 -0.018760 -17.165280 -3.899681 -9.822235 -14.616115 12.630058 0.906973 18.990717 0.997994 -10.980820 7.856541 4.282802 21.954138 -0.698092 4.554042 2.916932 0.261540 -0.012970 0.145860 18.928253 -9.379905 5.909338 -2.534586 16.161206 -32.603068 44.622445 -53.450150 71.331997 -3.985658 -16.512502 -0.454867 -0.013280 0.239430 0.100440 -5.229176 -0.633046 -8.540730 14.323470 -6.966050 31.657499 -16.209828 -2.951257 4.070155 1.673628 -5.527888 -11.119132 -17.145368 13.135907 61.715891 7.701000 2.824990 -13.311100 -17.107525 -7.180375 3.659017 -34.908330 0.784147 -9.024438 -77.754288 -43.193175 25.608549 -3.503225 3.094710 0.971870 -0.159810 0.190060 0.117990 13.408338 9.324463 5.701236 60.549821 5.447560 -12.721662 49.343908 36.595757 9.720194 2.176400 -1.206763 -0.349150 0.517340 0.229050 -0.203260 
-0.432980 17.912170 -0.027190 -17.378354 -3.904921 -10.236865 -14.602845 12.589626 0.823155 18.167558 1.031621 -9.889724 8.614500 3.932686 21.171749 -0.733054 4.434385 2.961695 0.308020 0.028700 0.191970 18.949506 -9.348676 6.009490 -1.258772 16.865399 -33.109214 42.490949 -56.203898 76.280414 -4.223411 -17.325366 -0.624326 0.010910 0.196300 0.121880 -5.280526 -0.543143 -8.540093 14.426905 -7.193173 31.832183 -16.925355 -3.028773 4.787188 2.010036 -5.349826 -11.146810 -16.777421 12.904705 62.881386 6.641870 3.106810 -14.572470 -16.839768 -7.623202 3.704428 -34.556096 0.360069 -9.179209 -78.319266 -43.840946 26.225863 -3.482349 3.106392 1.003960 -0.179590 0.225460 0.115280 12.508624 9.575878 5.701079 60.697454 6.491631 -12.366239 49.984246 36.045184 9.661617 2.164821 -1.226871 -0.336030 0.504110 0.213810 -0.222090 
-0.409800 17.889340 -0.037360 -17.396842 -3.691619 -10.496261 -14.597369 12.580585 0.788365 17.628600 1.048040 -9.527669 9.127469 3.741167 21.009423 -0.766219 4.404294 2.968843 0.316650 0.026100 0.213440 18.958758 -9.346302 6.038581 -0.478834 17.282282 -33.151024 39.670935 -56.592175 79.778500 -4.341631 -17.850064 -0.733735 0.018720 0.181780 0.127960 -5.302454 -0.495860 -8.536141 14.400762 -7.401865 32.052956 -17.407997 -3.137922 5.170946 2.249999 -5.286210 -11.194963 -16.606815 12.904015 63.509498 5.932460 3.360000 -14.869760 -17.022218 -8.144329 3.812955 -34.043153 0.332326 -9.332952 -79.451803 -44.697308 27.310509 -3.488178 3.106062 1.020120 -0.180110 0.228530 0.100600 12.239989 10.011621 5.721909 60.019474 7.233983 -11.941886 51.082654 35.405331 9.733204 2.157057 -1.231862 -0.343270 0.501080 0.221710 -0.241690 
-0.380180 17.867950 -0.055970 -17.220591 -3.588391 -11.047300 -14.585900 12.590273 0.773302 17.343083 1.116138 -9.371826 9.416446 3.678466 21.438190 -0.794882 4.440961 2.943812 0.325300 0.029930 0.224660 18.966888 -9.405221 6.030239 -0.483460 17.396410 -32.727702 38.100533 -55.511220 80.635411 -4.349007 -17.903110 -0.760571 0.028900 0.167690 0.133960 -5.325885 -0.386093 -8.521251 14.233574 -7.574937 33.101745 -17.840729 -3.204709 5.310270 2.353068 -5.306837 -11.275158 -16.623904 13.051326 63.960271 5.798140 3.559530 -15.830620 -17.305754 -8.763279 3.948284 -33.204728 0.508032 -9.572071 -81.535011 -45.744306 29.016953 -3.484564 3.108653 1.048110 -0.191370 0.241600 0.090540 12.340578 10.653743 5.783939 59.303482 7.848131 -11.799272 52.026101 35.401141 9.957690 2.150052 -1.224552 -0.351740 0.506400 0.232980 -0.256280 
-0.346540 17.849830 -0.078890 -16.681165 -2.802741 -11.603017 -14.599404 12.657765 0.804914 16.833156 1.078942 -10.115330 9.626139 3.629200 22.517315 -0.795250 4.479887 2.906004 0.334240 0.040540 0.238840 18.939684 -9.477411 5.970657 -1.552204 16.845420 -32.185312 36.248324 -52.993837 80.237117 -4.268976 -17.670915 -0.743158 0.030040 0.151070 0.146010 -5.261267 -0.411540 -8.516455 13.207171 -7.604322 34.457396 -17.580668 -3.360368 5.319039 2.338030 -5.152248 -11.401567 -16.194241 12.934930 64.430363 6.104020 3.647810 -16.350000 -17.686449 -9.519911 4.185198 -32.638322 0.919078 -9.966587 -83.284252 -46.442216 30.260187 -3.477449 3.125833 1.054410 -0.201330 0.256890 0.077240 12.825398 11.384366 5.846625 58.202512 8.093293 -11.878812 52.361714 35.502440 10.016618 2.161939 -1.218643 -0.338240 0.493400 0.234550 -0.258490 
-0.320740 17.831000 -0.106190 -15.840524 -1.899782 -11.881914 -14.645275 12.765296 0.907513 16.331798 0.924982 -11.645625 9.215361 3.809250 24.315007 -0.813397 4.629687 2.811100 0.306270 0.000510 0.227620 18.873718 -9.536074 5.852581 -2.976752 16.009334 -31.481768 33.772710 -49.404385 79.306466 -4.109233 -17.269804 -0.703600 0.013680 0.151570 0.167580 -5.098652 -0.587607 -8.534026 11.437204 -7.250269 35.856820 -16.657782 -3.363933 5.084807 2.283263 -4.735599 -11.469358 -14.987611 12.478644 64.541553 6.372900 3.841570 -16.435630 -18.164574 -10.108862 4.359074 -32.408599 1.487465 -10.382154 -84.068347 -46.966129 30.874700 -3.499289 3.135627 1.065260 -0.192400 0.253560 0.047910 13.497225 11.867230 5.877939 57.202841 7.929399 -12.155003 52.745447 35.982376 10.264117 2.160444 -1.201888 -0.343730 0.472310 0.269300 -0.270940 
-0.293440 17.790800 -0.132020 -15.119095 -1.324947 -11.718925 -14.696371 12.852736 1.078136 16.152418 0.650953 -13.900061 8.350726 4.251067 26.932666 -0.789930 4.919933 2.683043 0.269090 -0.054570 0.220320 18.804847 -9.605359 5.677325 -4.298791 15.232321 -30.908487 31.028481 -44.875752 77.531125 -3.886892 -16.625728 -0.609159 -0.020880 0.164910 0.187270 -4.930182 -0.752779 -8.561709 10.134176 -6.837201 37.065333 -15.748747 -3.156793 4.771044 2.372602 -4.309924 -11.554561 -13.686665 11.466784 63.672550 6.088520 3.761060 -16.550930 -18.223196 -10.319628 4.495427 -32.857674 2.101517 -10.827472 -85.916588 -47.585345 32.149584 -3.517429 3.140629 1.071770 -0.183860 0.251680 0.032860 13.419560 12.104325 6.044181 56.914988 7.335119 -12.802389 53.533438 37.033190 10.781687 2.165195 -1.197668 -0.350510 0.462290 0.291330 -0.273970 
-0.268700 17.764230 -0.170690 -14.045751 -0.984774 -11.845773 -14.750963 12.946508 1.329944 15.818677 0.248673 -16.176786 7.405786 4.806419 30.115806 -0.714321 5.262567 2.529000 0.284480 -0.018620 0.235890 18.722884 -9.756451 5.399752 -5.535118 14.174249 -29.595754 28.491825 -39.052626 73.586887 -3.538058 -15.434704 -0.370915 -0.018210 0.127890 0.167090 -4.737843 -0.852800 -8.569088 8.292615 -6.119736 39.041355 -14.614828 -2.733717 4.254860 2.318838 -3.874236 -11.579045 -12.492520 10.294797 62.983241 6.174410 3.570740 -17.650040 -18.407104 -10.564812 4.518544 -32.980718 2.531146 -11.325567 -87.081983 -47.686366 32.704293 -3.476732 3.149712 1.063720 -0.208330 0.270560 0.035750 13.753508 12.521614 6.196057 56.624216 6.626307 -13.698468 53.740170 38.222509 11.087927 2.180678 -1.202483 -0.330470 0.453250 0.258870 -0.271230 
-0.253840 17.713450 -0.207230 -12.894462 -1.611194 -11.497667 -14.843458 13.013293 1.685575 16.215023 -0.121538 -18.617224 5.437867 5.938437 33.262506 -0.581781 5.783235 2.332750 0.307530 0.018250 0.264050 18.612667 -9.838836 5.075775 -6.239080 13.549874 -28.617056 25.173388 -32.643852 69.303421 -3.128087 -14.025217 -0.068299 -0.027700 0.103790 0.178590 -4.449461 -1.046137 -8.609246 6.006539 -4.786526 40.635141 -13.005484 -1.835915 3.515151 2.395552 -3.220089 -11.188857 -10.586844 8.435068 60.885200 4.870530 3.431000 -18.669810 -18.866275 -10.011127 4.197464 -32.956166 2.943270 -11.544292 -88.544257 -46.802859 32.754065 -3.441993 3.187693 1.036400 -0.215880 0.295130 0.059020 14.072773 12.252850 6.002754 55.801136 6.123084 -14.122933 54.996679 39.138781 11.761134 2.207891 -1.250019 -0.290780 0.426830 0.205390 -0.253400 
-0.234620 17.642150 -0.242210 -12.081074 -2.330517 -10.236705 -14.940792 12.941155 2.193755 17.448239 -0.608368 -21.690809 2.326358 7.662201 35.926986 -0.462164 6.482170 2.065421 0.272500 -0.011430 0.249520 18.519911 -9.874673 4.680184 -6.724545 12.728359 -28.134332 21.697268 -26.329993 63.808202 -2.594610 -12.328215 0.330176 -0.054170 0.114370 0.185060 -4.186689 -1.191767 -8.676387 4.492892 -3.576888 41.146974 -11.657180 -0.854156 2.682831 2.525678 -2.389755 -10.510793 -8.310012 6.568382 57.447247 3.397900 3.359880 -18.975260 -19.420891 -8.924131 3.592320 -32.874556 3.077042 -11.394165 -88.558144 -45.314153 31.688660 -3.460046 3.206961 0.994290 -0.189050 0.276100 0.056020 14.317736 11.130075 5.634123 55.049302 5.196507 -14.364822 56.813781 40.090219 12.794899 2.218397 -1.287175 -0.282710 0.403860 0.201450 -0.244980 
-0.205720 17.551150 -0.269370 -11.370025 -3.307907 -8.505288 -15.039599 12.691260 2.870244 19.470930 -1.158228 -25.067988 -1.873190 10.061294 38.380554 -0.310878 7.454631 1.723310 0.211470 -0.075480 0.215780 18.454925 -9.865246 4.228596 -7.216119 11.670104 -27.932023 18.093128 -20.829526 57.961485 -2.040826 -10.566114 0.797105 -0.088560 0.159200 0.181250 -3.968206 -1.223597 -8.773561 3.607481 -2.500538 41.242221 -10.608970 0.190870 1.633710 2.618653 -1.578707 -9.716525 -6.126963 4.938053 52.890197 2.416390 3.319140 -19.207210 -19.789481 -7.346182 2.827854 -33.011837 3.124766 -11.013931 -88.851785 -44.024568 31.098052 -3.504268 3.207159 0.953830 -0.146640 0.234340 0.053990 14.400105 9.415083 5.200035 54.499109 3.802895 -14.551981 59.193338 40.790150 14.013993 2.216321 -1.313404 -0.302430 0.406350 0.216370 -0.238970 
-0.179000 17.434390 -0.292180 -11.074943 -4.119088 -6.288314 -15.180283 12.289229 3.678998 22.557272 -1.424005 -28.535331 -7.043663 12.927986 39.538993 -0.128894 8.530506 1.362419 0.135830 -0.156880 0.176000 18.397352 -9.678287 3.817541 -7.596033 10.839049 -28.490658 15.081553 -16.751026 52.596296 -1.559366 -9.039395 1.250436 -0.130380 0.205840 0.169650 -3.715925 -1.325726 -8.942685 3.186112 -1.530195 40.843437 -9.383591 1.290162 0.298196 2.906480 -0.762863 -9.125755 -4.114032 3.297287 48.246991 0.484490 3.309950 -18.574650 -20.003704 -5.623009 2.082828 -33.751076 3.361526 -10.498762 -88.601901 -42.007316 29.630403 -3.557008 3.197886 0.902760 -0.092010 0.177180 0.045610 13.951631 7.630061 4.996388 54.397633 1.931669 -14.858269 61.814517 41.531452 15.347774 2.208343 -1.347793 -0.328340 0.403420 0.236030 -0.238070 
